<svg width="964" height="268" viewBox="0 0 964 268" fill="none" xmlns="http://www.w3.org/2000/svg">
    <g clip-path="url(#clip0_5_46)">
        <rect width="964" height="268" rx="44" fill="white"/>
        <rect x="-24" y="-931" width="1512" height="1008" rx="209" fill="#FF0000"/>
        <rect x="-24" y="-931" width="1512" height="1008" rx="209" fill="black"/>
        <rect x="-24" y="-931" width="1512" height="1008" rx="209" fill="#D9D9DA"/>
        <path d="M74.112 154.768C71.424 154.768 68.928 154.352 66.624 153.52C64.352 152.656 62.368 151.44 60.672 149.872C59.008 148.304 57.712 146.448 56.784 144.304C55.856 142.16 55.392 139.792 55.392 137.2C55.392 134.608 55.856 132.24 56.784 130.096C57.712 127.952 59.008 126.096 60.672 124.528C62.368 122.96 64.352 121.76 66.624 120.928C68.928 120.064 71.424 119.632 74.112 119.632C77.408 119.632 80.32 120.208 82.848 121.36C85.408 122.512 87.52 124.176 89.184 126.352L82.032 132.736C81.04 131.488 79.936 130.528 78.72 129.856C77.536 129.152 76.192 128.8 74.688 128.8C73.504 128.8 72.432 128.992 71.472 129.376C70.512 129.76 69.68 130.32 68.976 131.056C68.304 131.792 67.776 132.688 67.392 133.744C67.008 134.768 66.816 135.92 66.816 137.2C66.816 138.48 67.008 139.648 67.392 140.704C67.776 141.728 68.304 142.608 68.976 143.344C69.68 144.08 70.512 144.64 71.472 145.024C72.432 145.408 73.504 145.6 74.688 145.6C76.192 145.6 77.536 145.264 78.72 144.592C79.936 143.888 81.04 142.912 82.032 141.664L89.184 148.048C87.52 150.192 85.408 151.856 82.848 153.04C80.32 154.192 77.408 154.768 74.112 154.768ZM105.241 154.48C102.265 154.48 99.6248 153.904 97.3208 152.752C95.0488 151.568 93.2568 149.952 91.9448 147.904C90.6328 145.856 89.9768 143.504 89.9768 140.848C89.9768 138.192 90.6328 135.84 91.9448 133.792C93.2568 131.744 95.0488 130.144 97.3208 128.992C99.6248 127.84 102.265 127.264 105.241 127.264C108.217 127.264 110.857 127.84 113.161 128.992C115.465 130.144 117.257 131.744 118.537 133.792C119.849 135.84 120.505 138.192 120.505 140.848C120.505 143.504 119.849 145.856 118.537 147.904C117.257 149.952 115.465 151.568 113.161 152.752C110.857 153.904 108.217 154.48 105.241 154.48ZM105.241 146.032C106.041 146.032 106.761 145.84 107.401 145.456C108.041 145.072 108.553 144.496 108.937 143.728C109.321 142.928 109.513 141.968 109.513 140.848C109.513 139.696 109.321 138.752 108.937 138.016C108.553 137.248 108.041 136.672 107.401 136.288C106.761 135.904 106.041 135.712 105.241 135.712C104.441 135.712 103.721 135.904 103.081 136.288C102.441 136.672 101.929 137.248 101.545 138.016C101.161 138.752 100.969 139.696 100.969 140.848C100.969 141.968 101.161 142.928 101.545 143.728C101.929 144.496 102.441 145.072 103.081 145.456C103.721 145.84 104.441 146.032 105.241 146.032ZM142.14 127.264C144.156 127.264 145.98 127.68 147.612 128.512C149.244 129.312 150.524 130.576 151.452 132.304C152.412 134.032 152.892 136.272 152.892 139.024V154H142.044V140.896C142.044 139.264 141.756 138.112 141.18 137.44C140.604 136.736 139.82 136.384 138.828 136.384C138.092 136.384 137.404 136.56 136.764 136.912C136.156 137.232 135.66 137.776 135.276 138.544C134.924 139.312 134.748 140.352 134.748 141.664V154H123.9V127.744H134.22V135.424L132.156 133.216C133.18 131.232 134.556 129.744 136.284 128.752C138.044 127.76 139.996 127.264 142.14 127.264ZM170.275 154.48C166.659 154.48 163.843 153.616 161.827 151.888C159.811 150.128 158.803 147.44 158.803 143.824V121.84H169.651V143.728C169.651 144.528 169.859 145.152 170.275 145.6C170.723 146.048 171.267 146.272 171.907 146.272C172.835 146.272 173.651 146.032 174.355 145.552L176.947 153.088C176.115 153.568 175.107 153.92 173.923 154.144C172.771 154.368 171.555 154.48 170.275 154.48ZM155.203 137.104V129.184H175.027V137.104H155.203ZM179.681 154V127.744H190.529V154H179.681ZM185.105 125.632C183.121 125.632 181.537 125.104 180.353 124.048C179.169 122.992 178.577 121.68 178.577 120.112C178.577 118.544 179.169 117.232 180.353 116.176C181.537 115.12 183.121 114.592 185.105 114.592C187.089 114.592 188.673 115.088 189.857 116.08C191.041 117.072 191.633 118.352 191.633 119.92C191.633 121.584 191.041 122.96 189.857 124.048C188.673 125.104 187.089 125.632 185.105 125.632ZM213.578 127.264C215.594 127.264 217.418 127.68 219.05 128.512C220.682 129.312 221.962 130.576 222.89 132.304C223.85 134.032 224.33 136.272 224.33 139.024V154H213.482V140.896C213.482 139.264 213.194 138.112 212.618 137.44C212.042 136.736 211.258 136.384 210.266 136.384C209.53 136.384 208.842 136.56 208.202 136.912C207.594 137.232 207.098 137.776 206.714 138.544C206.362 139.312 206.186 140.352 206.186 141.664V154H195.338V127.744H205.658V135.424L203.594 133.216C204.618 131.232 205.994 129.744 207.722 128.752C209.482 127.76 211.434 127.264 213.578 127.264ZM239.985 154.48C237.905 154.48 236.017 154.064 234.321 153.232C232.657 152.368 231.345 151.04 230.385 149.248C229.425 147.424 228.945 145.088 228.945 142.24V127.744H239.793V140.368C239.793 142.224 240.097 143.52 240.705 144.256C241.313 144.992 242.145 145.36 243.201 145.36C243.841 145.36 244.433 145.2 244.977 144.88C245.553 144.528 246.017 143.968 246.369 143.2C246.721 142.4 246.897 141.36 246.897 140.08V127.744H257.745V154H247.425V146.416L249.489 148.48C248.561 150.528 247.233 152.048 245.505 153.04C243.809 154 241.969 154.48 239.985 154.48ZM276.428 154.48C273.452 154.48 270.812 153.904 268.508 152.752C266.236 151.568 264.444 149.952 263.132 147.904C261.82 145.856 261.164 143.504 261.164 140.848C261.164 138.192 261.82 135.84 263.132 133.792C264.444 131.744 266.236 130.144 268.508 128.992C270.812 127.84 273.452 127.264 276.428 127.264C279.404 127.264 282.044 127.84 284.348 128.992C286.652 130.144 288.444 131.744 289.724 133.792C291.036 135.84 291.692 138.192 291.692 140.848C291.692 143.504 291.036 145.856 289.724 147.904C288.444 149.952 286.652 151.568 284.348 152.752C282.044 153.904 279.404 154.48 276.428 154.48ZM276.428 146.032C277.228 146.032 277.948 145.84 278.588 145.456C279.228 145.072 279.74 144.496 280.124 143.728C280.508 142.928 280.7 141.968 280.7 140.848C280.7 139.696 280.508 138.752 280.124 138.016C279.74 137.248 279.228 136.672 278.588 136.288C277.948 135.904 277.228 135.712 276.428 135.712C275.628 135.712 274.908 135.904 274.268 136.288C273.628 136.672 273.116 137.248 272.732 138.016C272.348 138.752 272.156 139.696 272.156 140.848C272.156 141.968 272.348 142.928 272.732 143.728C273.116 144.496 273.628 145.072 274.268 145.456C274.908 145.84 275.628 146.032 276.428 146.032ZM306.032 154.48C303.952 154.48 302.064 154.064 300.368 153.232C298.704 152.368 297.392 151.04 296.432 149.248C295.472 147.424 294.992 145.088 294.992 142.24V127.744H305.84V140.368C305.84 142.224 306.144 143.52 306.752 144.256C307.36 144.992 308.192 145.36 309.248 145.36C309.888 145.36 310.48 145.2 311.024 144.88C311.6 144.528 312.064 143.968 312.416 143.2C312.768 142.4 312.944 141.36 312.944 140.08V127.744H323.792V154H313.472V146.416L315.536 148.48C314.608 150.528 313.28 152.048 311.552 153.04C309.856 154 308.016 154.48 306.032 154.48ZM338.875 154.48C336.635 154.48 334.427 154.24 332.251 153.76C330.075 153.28 328.315 152.656 326.971 151.888L329.947 144.736C331.195 145.472 332.635 146.048 334.267 146.464C335.931 146.88 337.547 147.088 339.115 147.088C340.427 147.088 341.307 146.976 341.755 146.752C342.235 146.528 342.475 146.224 342.475 145.84C342.475 145.456 342.203 145.184 341.659 145.024C341.115 144.832 340.395 144.688 339.499 144.592C338.603 144.496 337.611 144.384 336.523 144.256C335.467 144.096 334.395 143.872 333.307 143.584C332.219 143.296 331.227 142.864 330.331 142.288C329.435 141.712 328.715 140.944 328.171 139.984C327.627 138.992 327.355 137.744 327.355 136.24C327.355 134.576 327.851 133.072 328.843 131.728C329.867 130.384 331.371 129.312 333.355 128.512C335.371 127.68 337.851 127.264 340.795 127.264C342.715 127.264 344.635 127.44 346.555 127.792C348.475 128.144 350.123 128.688 351.499 129.424L348.523 136.576C347.179 135.84 345.851 135.344 344.539 135.088C343.259 134.8 342.059 134.656 340.939 134.656C339.563 134.656 338.619 134.784 338.107 135.04C337.627 135.296 337.387 135.584 337.387 135.904C337.387 136.288 337.659 136.576 338.203 136.768C338.747 136.96 339.467 137.104 340.363 137.2C341.259 137.296 342.235 137.424 343.291 137.584C344.379 137.712 345.451 137.936 346.507 138.256C347.595 138.544 348.587 138.976 349.483 139.552C350.379 140.128 351.099 140.912 351.643 141.904C352.187 142.864 352.459 144.096 352.459 145.6C352.459 147.168 351.963 148.64 350.971 150.016C349.979 151.36 348.475 152.448 346.459 153.28C344.443 154.08 341.915 154.48 338.875 154.48Z" fill="#FF0004"/>
        <path d="M356.08 154V120.4H372.256C375.392 120.4 378.096 120.912 380.368 121.936C382.672 122.96 384.448 124.432 385.696 126.352C386.944 128.24 387.568 130.48 387.568 133.072C387.568 135.664 386.944 137.904 385.696 139.792C384.448 141.648 382.672 143.072 380.368 144.064C378.096 145.056 375.392 145.552 372.256 145.552H362.368L367.408 140.896V154H356.08ZM376.192 154L367.936 141.76H379.936L388.288 154H376.192ZM367.408 142.144L362.368 137.008H371.536C373.104 137.008 374.256 136.656 374.992 135.952C375.76 135.248 376.144 134.288 376.144 133.072C376.144 131.856 375.76 130.896 374.992 130.192C374.256 129.488 373.104 129.136 371.536 129.136H362.368L367.408 124V142.144ZM405.381 154.48C402.405 154.48 399.765 153.904 397.461 152.752C395.189 151.568 393.397 149.952 392.085 147.904C390.773 145.856 390.117 143.504 390.117 140.848C390.117 138.192 390.773 135.84 392.085 133.792C393.397 131.744 395.189 130.144 397.461 128.992C399.765 127.84 402.405 127.264 405.381 127.264C408.357 127.264 410.997 127.84 413.301 128.992C415.605 130.144 417.397 131.744 418.677 133.792C419.989 135.84 420.645 138.192 420.645 140.848C420.645 143.504 419.989 145.856 418.677 147.904C417.397 149.952 415.605 151.568 413.301 152.752C410.997 153.904 408.357 154.48 405.381 154.48ZM405.381 146.032C406.181 146.032 406.901 145.84 407.541 145.456C408.181 145.072 408.693 144.496 409.077 143.728C409.461 142.928 409.653 141.968 409.653 140.848C409.653 139.696 409.461 138.752 409.077 138.016C408.693 137.248 408.181 136.672 407.541 136.288C406.901 135.904 406.181 135.712 405.381 135.712C404.581 135.712 403.861 135.904 403.221 136.288C402.581 136.672 402.069 137.248 401.685 138.016C401.301 138.752 401.109 139.696 401.109 140.848C401.109 141.968 401.301 142.928 401.685 143.728C402.069 144.496 402.581 145.072 403.221 145.456C403.861 145.84 404.581 146.032 405.381 146.032ZM434.985 154.48C432.905 154.48 431.017 154.064 429.321 153.232C427.657 152.368 426.345 151.04 425.385 149.248C424.425 147.424 423.945 145.088 423.945 142.24V127.744H434.793V140.368C434.793 142.224 435.097 143.52 435.705 144.256C436.313 144.992 437.145 145.36 438.201 145.36C438.841 145.36 439.433 145.2 439.977 144.88C440.553 144.528 441.017 143.968 441.369 143.2C441.721 142.4 441.897 141.36 441.897 140.08V127.744H452.745V154H442.425V146.416L444.489 148.48C443.561 150.528 442.233 152.048 440.505 153.04C438.809 154 436.969 154.48 434.985 154.48ZM475.796 127.264C477.812 127.264 479.636 127.68 481.268 128.512C482.9 129.312 484.18 130.576 485.108 132.304C486.068 134.032 486.548 136.272 486.548 139.024V154H475.7V140.896C475.7 139.264 475.412 138.112 474.836 137.44C474.26 136.736 473.476 136.384 472.484 136.384C471.748 136.384 471.06 136.56 470.42 136.912C469.812 137.232 469.316 137.776 468.932 138.544C468.58 139.312 468.404 140.352 468.404 141.664V154H457.556V127.744H467.876V135.424L465.812 133.216C466.836 131.232 468.212 129.744 469.94 128.752C471.7 127.76 473.652 127.264 475.796 127.264ZM503.248 154.48C500.976 154.48 498.864 153.936 496.912 152.848C494.992 151.728 493.456 150.16 492.304 148.144C491.152 146.096 490.576 143.664 490.576 140.848C490.576 138.032 491.152 135.616 492.304 133.6C493.456 131.552 494.992 129.984 496.912 128.896C498.864 127.808 500.976 127.264 503.248 127.264C505.552 127.264 507.44 127.76 508.912 128.752C510.384 129.712 511.472 131.2 512.176 133.216C512.88 135.2 513.232 137.744 513.232 140.848C513.232 143.984 512.896 146.56 512.224 148.576C511.584 150.592 510.528 152.08 509.056 153.04C507.616 154 505.68 154.48 503.248 154.48ZM505.84 146.032C506.64 146.032 507.36 145.84 508 145.456C508.64 145.072 509.152 144.496 509.536 143.728C509.92 142.928 510.112 141.968 510.112 140.848C510.112 139.696 509.92 138.752 509.536 138.016C509.152 137.248 508.64 136.672 508 136.288C507.36 135.904 506.64 135.712 505.84 135.712C505.04 135.712 504.32 135.904 503.68 136.288C503.04 136.672 502.528 137.248 502.144 138.016C501.76 138.752 501.568 139.696 501.568 140.848C501.568 141.968 501.76 142.928 502.144 143.728C502.528 144.496 503.04 145.072 503.68 145.456C504.32 145.84 505.04 146.032 505.84 146.032ZM510.448 154V150.448L510.4 140.848L509.92 131.248V118.384H520.768V154H510.448ZM540.068 154.48C536.868 154.48 534.068 153.888 531.668 152.704C529.3 151.52 527.46 149.904 526.148 147.856C524.836 145.776 524.18 143.44 524.18 140.848C524.18 138.192 524.82 135.84 526.1 133.792C527.412 131.744 529.188 130.144 531.428 128.992C533.7 127.84 536.244 127.264 539.06 127.264C541.652 127.264 544.036 127.776 546.212 128.8C548.42 129.824 550.18 131.344 551.492 133.36C552.836 135.376 553.508 137.872 553.508 140.848C553.508 141.232 553.492 141.664 553.46 142.144C553.428 142.592 553.396 143.008 553.364 143.392H533.156V138.16H547.604L543.524 139.552C543.524 138.528 543.332 137.664 542.948 136.96C542.596 136.224 542.1 135.664 541.46 135.28C540.82 134.864 540.052 134.656 539.156 134.656C538.26 134.656 537.476 134.864 536.804 135.28C536.164 135.664 535.668 136.224 535.316 136.96C534.964 137.664 534.788 138.528 534.788 139.552V141.184C534.788 142.304 535.012 143.264 535.46 144.064C535.908 144.864 536.548 145.472 537.38 145.888C538.212 146.272 539.22 146.464 540.404 146.464C541.62 146.464 542.612 146.304 543.38 145.984C544.18 145.664 545.012 145.184 545.876 144.544L551.54 150.256C550.26 151.632 548.676 152.688 546.788 153.424C544.932 154.128 542.692 154.48 540.068 154.48ZM568.451 154.48C566.179 154.48 564.067 153.936 562.115 152.848C560.195 151.728 558.659 150.16 557.507 148.144C556.355 146.096 555.779 143.664 555.779 140.848C555.779 138.032 556.355 135.616 557.507 133.6C558.659 131.552 560.195 129.984 562.115 128.896C564.067 127.808 566.179 127.264 568.451 127.264C570.755 127.264 572.643 127.76 574.115 128.752C575.587 129.712 576.675 131.2 577.379 133.216C578.083 135.2 578.435 137.744 578.435 140.848C578.435 143.984 578.099 146.56 577.427 148.576C576.787 150.592 575.731 152.08 574.259 153.04C572.819 154 570.883 154.48 568.451 154.48ZM571.043 146.032C571.843 146.032 572.563 145.84 573.203 145.456C573.843 145.072 574.355 144.496 574.739 143.728C575.123 142.928 575.315 141.968 575.315 140.848C575.315 139.696 575.123 138.752 574.739 138.016C574.355 137.248 573.843 136.672 573.203 136.288C572.563 135.904 571.843 135.712 571.043 135.712C570.243 135.712 569.523 135.904 568.883 136.288C568.243 136.672 567.731 137.248 567.347 138.016C566.963 138.752 566.771 139.696 566.771 140.848C566.771 141.968 566.963 142.928 567.347 143.728C567.731 144.496 568.243 145.072 568.883 145.456C569.523 145.84 570.243 146.032 571.043 146.032ZM575.651 154V150.448L575.603 140.848L575.123 131.248V118.384H585.971V154H575.651ZM608.487 154.768C605.799 154.768 603.303 154.352 600.999 153.52C598.727 152.656 596.743 151.44 595.047 149.872C593.383 148.304 592.087 146.448 591.159 144.304C590.231 142.16 589.767 139.792 589.767 137.2C589.767 134.608 590.231 132.24 591.159 130.096C592.087 127.952 593.383 126.096 595.047 124.528C596.743 122.96 598.727 121.76 600.999 120.928C603.303 120.064 605.799 119.632 608.487 119.632C611.783 119.632 614.695 120.208 617.223 121.36C619.783 122.512 621.895 124.176 623.559 126.352L616.407 132.736C615.415 131.488 614.311 130.528 613.095 129.856C611.911 129.152 610.567 128.8 609.063 128.8C607.879 128.8 606.807 128.992 605.847 129.376C604.887 129.76 604.055 130.32 603.351 131.056C602.679 131.792 602.151 132.688 601.767 133.744C601.383 134.768 601.191 135.92 601.191 137.2C601.191 138.48 601.383 139.648 601.767 140.704C602.151 141.728 602.679 142.608 603.351 143.344C604.055 144.08 604.887 144.64 605.847 145.024C606.807 145.408 607.879 145.6 609.063 145.6C610.567 145.6 611.911 145.264 613.095 144.592C614.311 143.888 615.415 142.912 616.407 141.664L623.559 148.048C621.895 150.192 619.783 151.856 617.223 153.04C614.695 154.192 611.783 154.768 608.487 154.768ZM639.616 154.48C636.64 154.48 634 153.904 631.696 152.752C629.424 151.568 627.632 149.952 626.32 147.904C625.008 145.856 624.352 143.504 624.352 140.848C624.352 138.192 625.008 135.84 626.32 133.792C627.632 131.744 629.424 130.144 631.696 128.992C634 127.84 636.64 127.264 639.616 127.264C642.592 127.264 645.232 127.84 647.536 128.992C649.84 130.144 651.632 131.744 652.912 133.792C654.224 135.84 654.88 138.192 654.88 140.848C654.88 143.504 654.224 145.856 652.912 147.904C651.632 149.952 649.84 151.568 647.536 152.752C645.232 153.904 642.592 154.48 639.616 154.48ZM639.616 146.032C640.416 146.032 641.136 145.84 641.776 145.456C642.416 145.072 642.928 144.496 643.312 143.728C643.696 142.928 643.888 141.968 643.888 140.848C643.888 139.696 643.696 138.752 643.312 138.016C642.928 137.248 642.416 136.672 641.776 136.288C641.136 135.904 640.416 135.712 639.616 135.712C638.816 135.712 638.096 135.904 637.456 136.288C636.816 136.672 636.304 137.248 635.92 138.016C635.536 138.752 635.344 139.696 635.344 140.848C635.344 141.968 635.536 142.928 635.92 143.728C636.304 144.496 636.816 145.072 637.456 145.456C638.096 145.84 638.816 146.032 639.616 146.032ZM658.275 154V127.744H668.595V135.664L666.915 133.408C667.715 131.36 668.995 129.824 670.755 128.8C672.515 127.776 674.627 127.264 677.091 127.264V136.864C676.611 136.8 676.179 136.752 675.795 136.72C675.443 136.688 675.075 136.672 674.691 136.672C673.059 136.672 671.715 137.104 670.659 137.968C669.635 138.8 669.123 140.256 669.123 142.336V154H658.275ZM698.406 127.264C700.422 127.264 702.246 127.68 703.878 128.512C705.51 129.312 706.79 130.576 707.718 132.304C708.678 134.032 709.158 136.272 709.158 139.024V154H698.31V140.896C698.31 139.264 698.022 138.112 697.446 137.44C696.87 136.736 696.086 136.384 695.094 136.384C694.358 136.384 693.67 136.56 693.03 136.912C692.422 137.232 691.926 137.776 691.542 138.544C691.19 139.312 691.014 140.352 691.014 141.664V154H680.166V127.744H690.486V135.424L688.422 133.216C689.446 131.232 690.822 129.744 692.55 128.752C694.31 127.76 696.262 127.264 698.406 127.264ZM728.834 154.48C725.634 154.48 722.834 153.888 720.434 152.704C718.066 151.52 716.226 149.904 714.914 147.856C713.602 145.776 712.946 143.44 712.946 140.848C712.946 138.192 713.586 135.84 714.866 133.792C716.178 131.744 717.954 130.144 720.194 128.992C722.466 127.84 725.01 127.264 727.826 127.264C730.418 127.264 732.802 127.776 734.978 128.8C737.186 129.824 738.946 131.344 740.258 133.36C741.602 135.376 742.274 137.872 742.274 140.848C742.274 141.232 742.258 141.664 742.226 142.144C742.194 142.592 742.162 143.008 742.13 143.392H721.922V138.16H736.37L732.29 139.552C732.29 138.528 732.098 137.664 731.714 136.96C731.362 136.224 730.866 135.664 730.226 135.28C729.586 134.864 728.818 134.656 727.922 134.656C727.026 134.656 726.242 134.864 725.57 135.28C724.93 135.664 724.434 136.224 724.082 136.96C723.73 137.664 723.554 138.528 723.554 139.552V141.184C723.554 142.304 723.778 143.264 724.226 144.064C724.674 144.864 725.314 145.472 726.146 145.888C726.978 146.272 727.986 146.464 729.17 146.464C730.386 146.464 731.378 146.304 732.146 145.984C732.946 145.664 733.778 145.184 734.642 144.544L740.306 150.256C739.026 151.632 737.442 152.688 735.554 153.424C733.698 154.128 731.458 154.48 728.834 154.48ZM745.697 154V127.744H756.017V135.664L754.337 133.408C755.137 131.36 756.417 129.824 758.177 128.8C759.937 127.776 762.049 127.264 764.513 127.264V136.864C764.033 136.8 763.601 136.752 763.217 136.72C762.865 136.688 762.497 136.672 762.113 136.672C760.481 136.672 759.137 137.104 758.081 137.968C757.057 138.8 756.545 140.256 756.545 142.336V154H745.697ZM780.452 154.768C777.636 154.768 774.916 154.448 772.292 153.808C769.668 153.168 767.507 152.336 765.812 151.312L769.46 143.056C771.06 143.984 772.836 144.736 774.788 145.312C776.772 145.856 778.692 146.128 780.548 146.128C781.636 146.128 782.484 146.064 783.092 145.936C783.732 145.776 784.196 145.568 784.484 145.312C784.772 145.024 784.916 144.688 784.916 144.304C784.916 143.696 784.58 143.216 783.908 142.864C783.236 142.512 782.34 142.224 781.22 142C780.132 141.744 778.932 141.488 777.62 141.232C776.308 140.944 774.98 140.576 773.636 140.128C772.324 139.68 771.108 139.088 769.988 138.352C768.9 137.616 768.02 136.656 767.348 135.472C766.676 134.256 766.34 132.752 766.34 130.96C766.34 128.88 766.916 126.992 768.068 125.296C769.252 123.568 770.996 122.192 773.3 121.168C775.636 120.144 778.532 119.632 781.988 119.632C784.26 119.632 786.5 119.872 788.708 120.352C790.916 120.832 792.9 121.568 794.66 122.56L791.252 130.768C789.588 129.936 787.972 129.312 786.404 128.896C784.868 128.48 783.364 128.272 781.892 128.272C780.804 128.272 779.94 128.368 779.299 128.56C778.66 128.752 778.196 129.008 777.908 129.328C777.652 129.648 777.523 130 777.523 130.384C777.523 130.96 777.86 131.424 778.532 131.776C779.204 132.096 780.084 132.368 781.172 132.592C782.292 132.816 783.508 133.056 784.82 133.312C786.164 133.568 787.492 133.92 788.804 134.368C790.116 134.816 791.316 135.408 792.404 136.144C793.524 136.88 794.42 137.84 795.092 139.024C795.764 140.208 796.1 141.68 796.1 143.44C796.1 145.488 795.508 147.376 794.324 149.104C793.172 150.8 791.444 152.176 789.14 153.232C786.836 154.256 783.94 154.768 780.452 154.768ZM817.374 127.264C819.39 127.264 821.214 127.68 822.846 128.512C824.478 129.312 825.758 130.576 826.686 132.304C827.646 134.032 828.126 136.272 828.126 139.024V154H817.278V140.896C817.278 139.264 816.99 138.112 816.414 137.44C815.838 136.736 815.054 136.384 814.062 136.384C813.326 136.384 812.638 136.56 811.998 136.912C811.39 137.232 810.894 137.776 810.51 138.544C810.158 139.312 809.982 140.352 809.982 141.664V154H799.134V118.384H809.982V135.424L807.39 133.216C808.414 131.232 809.79 129.744 811.518 128.752C813.278 127.76 815.23 127.264 817.374 127.264ZM848.726 154V149.344L847.958 148.096V139.264C847.958 137.984 847.558 137.008 846.758 136.336C845.99 135.664 844.726 135.328 842.966 135.328C841.782 135.328 840.582 135.52 839.366 135.904C838.15 136.256 837.11 136.752 836.246 137.392L832.79 130.24C834.326 129.28 836.166 128.544 838.31 128.032C840.454 127.52 842.55 127.264 844.598 127.264C849.11 127.264 852.598 128.272 855.062 130.288C857.558 132.304 858.806 135.504 858.806 139.888V154H848.726ZM841.286 154.48C839.142 154.48 837.35 154.112 835.91 153.376C834.47 152.64 833.382 151.664 832.646 150.448C831.91 149.2 831.542 147.824 831.542 146.32C831.542 144.624 831.974 143.184 832.838 142C833.702 140.816 835.014 139.92 836.773 139.312C838.566 138.704 840.822 138.4 843.542 138.4H849.014V143.632H845.27C844.118 143.632 843.27 143.824 842.726 144.208C842.214 144.56 841.958 145.104 841.958 145.84C841.958 146.448 842.182 146.96 842.63 147.376C843.11 147.76 843.75 147.952 844.549 147.952C845.286 147.952 845.958 147.76 846.566 147.376C847.206 146.96 847.67 146.32 847.958 145.456L849.35 148.672C848.934 150.624 848.054 152.08 846.71 153.04C845.366 154 843.558 154.48 841.286 154.48ZM881.014 154.48C878.742 154.48 876.854 154 875.35 153.04C873.878 152.048 872.79 150.56 872.086 148.576C871.382 146.56 871.03 144 871.03 140.896C871.03 137.728 871.35 135.152 871.99 133.168C872.662 131.152 873.734 129.664 875.206 128.704C876.678 127.744 878.614 127.264 881.014 127.264C883.318 127.264 885.43 127.824 887.35 128.944C889.27 130.032 890.806 131.6 891.958 133.648C893.11 135.664 893.686 138.08 893.686 140.896C893.686 143.712 893.11 146.144 891.958 148.192C890.806 150.208 889.27 151.76 887.35 152.848C885.43 153.936 883.318 154.48 881.014 154.48ZM863.494 163.312V127.744H873.814V131.296L873.862 140.896L874.342 150.496V163.312H863.494ZM878.422 146.032C879.222 146.032 879.942 145.84 880.582 145.456C881.222 145.072 881.734 144.496 882.118 143.728C882.502 142.96 882.694 142.016 882.694 140.896C882.694 139.744 882.502 138.784 882.118 138.016C881.734 137.248 881.222 136.672 880.582 136.288C879.942 135.904 879.222 135.712 878.422 135.712C877.622 135.712 876.902 135.904 876.262 136.288C875.622 136.672 875.11 137.248 874.726 138.016C874.342 138.784 874.15 139.744 874.15 140.896C874.15 142.016 874.342 142.96 874.726 143.728C875.11 144.496 875.622 145.072 876.262 145.456C876.902 145.84 877.622 146.032 878.422 146.032ZM911.599 154.48C908.399 154.48 905.599 153.888 903.199 152.704C900.831 151.52 898.991 149.904 897.679 147.856C896.367 145.776 895.711 143.44 895.711 140.848C895.711 138.192 896.351 135.84 897.631 133.792C898.943 131.744 900.719 130.144 902.959 128.992C905.231 127.84 907.775 127.264 910.591 127.264C913.183 127.264 915.567 127.776 917.743 128.8C919.951 129.824 921.711 131.344 923.023 133.36C924.367 135.376 925.039 137.872 925.039 140.848C925.039 141.232 925.023 141.664 924.991 142.144C924.959 142.592 924.927 143.008 924.895 143.392H904.687V138.16H919.135L915.055 139.552C915.055 138.528 914.863 137.664 914.479 136.96C914.127 136.224 913.631 135.664 912.991 135.28C912.351 134.864 911.583 134.656 910.687 134.656C909.791 134.656 909.007 134.864 908.335 135.28C907.695 135.664 907.199 136.224 906.847 136.96C906.495 137.664 906.319 138.528 906.319 139.552V141.184C906.319 142.304 906.543 143.264 906.991 144.064C907.439 144.864 908.079 145.472 908.911 145.888C909.743 146.272 910.751 146.464 911.935 146.464C913.151 146.464 914.143 146.304 914.911 145.984C915.711 145.664 916.543 145.184 917.407 144.544L923.071 150.256C921.791 151.632 920.207 152.688 918.319 153.424C916.463 154.128 914.223 154.48 911.599 154.48Z" fill="black"/>
        <rect x="-847" y="200" width="1447" height="1008" rx="209" fill="#FF0000"/>
        <rect x="-847" y="200" width="1447" height="1008" rx="209" fill="black"/>
        <rect x="-847" y="200" width="1447" height="1008" rx="209" fill="#D9D9DA"/>
        <path d="M723.6 236V211.04C723.6 207.648 724.608 204.944 726.624 202.928C728.672 200.912 731.568 199.904 735.312 199.904C736.464 199.904 737.616 200.016 738.768 200.24C739.952 200.432 740.944 200.752 741.744 201.2L739.152 208.736C738.8 208.576 738.416 208.432 738 208.304C737.584 208.176 737.152 208.112 736.704 208.112C735.936 208.112 735.312 208.352 734.832 208.832C734.352 209.312 734.112 210.08 734.112 211.136V212.384L734.448 216.848V236H723.6ZM720 219.104V211.184H739.824V219.104H720ZM756.475 236.48C753.499 236.48 750.859 235.904 748.555 234.752C746.283 233.568 744.491 231.952 743.179 229.904C741.867 227.856 741.211 225.504 741.211 222.848C741.211 220.192 741.867 217.84 743.179 215.792C744.491 213.744 746.283 212.144 748.555 210.992C750.859 209.84 753.499 209.264 756.475 209.264C759.451 209.264 762.091 209.84 764.395 210.992C766.699 212.144 768.491 213.744 769.771 215.792C771.083 217.84 771.739 220.192 771.739 222.848C771.739 225.504 771.083 227.856 769.771 229.904C768.491 231.952 766.699 233.568 764.395 234.752C762.091 235.904 759.451 236.48 756.475 236.48ZM756.475 228.032C757.275 228.032 757.995 227.84 758.635 227.456C759.275 227.072 759.787 226.496 760.171 225.728C760.555 224.928 760.747 223.968 760.747 222.848C760.747 221.696 760.555 220.752 760.171 220.016C759.787 219.248 759.275 218.672 758.635 218.288C757.995 217.904 757.275 217.712 756.475 217.712C755.675 217.712 754.955 217.904 754.315 218.288C753.675 218.672 753.163 219.248 752.779 220.016C752.395 220.752 752.203 221.696 752.203 222.848C752.203 223.968 752.395 224.928 752.779 225.728C753.163 226.496 753.675 227.072 754.315 227.456C754.955 227.84 755.675 228.032 756.475 228.032ZM775.134 236V209.744H785.454V217.664L783.774 215.408C784.574 213.36 785.854 211.824 787.614 210.8C789.374 209.776 791.486 209.264 793.95 209.264V218.864C793.47 218.8 793.038 218.752 792.654 218.72C792.302 218.688 791.934 218.672 791.55 218.672C789.918 218.672 788.574 219.104 787.518 219.968C786.494 220.8 785.982 222.256 785.982 224.336V236H775.134Z" fill="#949494"/>
        <path d="M829.128 236.768C826.44 236.768 823.944 236.352 821.64 235.52C819.368 234.656 817.384 233.44 815.688 231.872C814.024 230.304 812.728 228.448 811.8 226.304C810.872 224.16 810.408 221.792 810.408 219.2C810.408 216.608 810.872 214.24 811.8 212.096C812.728 209.952 814.024 208.096 815.688 206.528C817.384 204.96 819.368 203.76 821.64 202.928C823.944 202.064 826.44 201.632 829.128 201.632C832.424 201.632 835.336 202.208 837.864 203.36C840.424 204.512 842.536 206.176 844.2 208.352L837.048 214.736C836.056 213.488 834.952 212.528 833.736 211.856C832.552 211.152 831.208 210.8 829.704 210.8C828.52 210.8 827.448 210.992 826.488 211.376C825.528 211.76 824.696 212.32 823.992 213.056C823.32 213.792 822.792 214.688 822.408 215.744C822.024 216.768 821.832 217.92 821.832 219.2C821.832 220.48 822.024 221.648 822.408 222.704C822.792 223.728 823.32 224.608 823.992 225.344C824.696 226.08 825.528 226.64 826.488 227.024C827.448 227.408 828.52 227.6 829.704 227.6C831.208 227.6 832.552 227.264 833.736 226.592C834.952 225.888 836.056 224.912 837.048 223.664L844.2 230.048C842.536 232.192 840.424 233.856 837.864 235.04C835.336 236.192 832.424 236.768 829.128 236.768ZM847.47 236V202.4H856.782L870.222 224.336H865.326L878.382 202.4H887.694L887.79 236H877.47L877.374 217.952H879.006L870.078 232.976H865.086L855.774 217.952H857.79V236H847.47ZM893.267 236V202.4H909.443C912.579 202.4 915.283 202.912 917.555 203.936C919.859 204.96 921.635 206.432 922.883 208.352C924.131 210.24 924.755 212.48 924.755 215.072C924.755 217.664 924.131 219.904 922.883 221.792C921.635 223.68 919.859 225.152 917.555 226.208C915.283 227.232 912.579 227.744 909.443 227.744H899.555L904.595 222.896V236H893.267ZM904.595 224.144L899.555 219.008H908.723C910.291 219.008 911.443 218.656 912.179 217.952C912.947 217.248 913.331 216.288 913.331 215.072C913.331 213.856 912.947 212.896 912.179 212.192C911.443 211.488 910.291 211.136 908.723 211.136H899.555L904.595 206V224.144Z" fill="black"/>
    </g>
    <defs>
        <clipPath id="clip0_5_46">
            <rect width="964" height="268" rx="44" fill="white"/>
        </clipPath>
    </defs>
</svg>
